<?xml version="1.0" encoding="UTF-8"?>
<svg width="320" height="320" version="1.1" xml:space="preserve" xmlns="http://www.w3.org/2000/svg" xmlns:xlink="http://www.w3.org/1999/xlink"><defs><style type="text/css">
   
    .str0 {stroke:#2B2A29;stroke-width:7.62}
    .fil0 {fill:#2B2A29}
    .fil1 {fill:#68B03B}
    .fil2 {fill:#E1252A}
    .fil4 {fill:#EFF1F3}
    .fil6 {fill:#F7E31F}
    .fil5 {fill:#FEFEFE}
    .fil3 {fill:#FFED00}
   
  </style></defs><rect width="320" height="320" style="fill-rule:evenodd;fill:#e1252a;stroke-linecap:round;stroke-linejoin:round;stroke-miterlimit:10.5;stroke-width:13.403"/><rect width="160" height="320" style="fill-rule:evenodd;fill:#68b03b;stroke-linecap:round;stroke-linejoin:round;stroke-miterlimit:10.5;stroke-width:10.053"/><g transform="matrix(.029777 0 0 .029777 -517.7 -283.75)" style="fill-rule:evenodd"><g transform="matrix(.63111 0 0 .63111 2633 11563)"><path d="m29090 8953.8s1570.9 1475.3 2720 1475.3c1611.1 0 2587-1801.1 2670.2-1945.3l-1179.3-986.16c-526.05 389.36-846 553.17-1491 432.68-525.28-98.129-1045.1-651.3-1045.1-651.3z" style="fill-rule:evenodd;fill:#fff;stroke-linecap:round;stroke-linejoin:round;stroke-miterlimit:3.1;stroke-width:65.054;stroke:#000"/><g transform="matrix(5.3488 -5.3487 5.3488 5.3487 34043 -11402)" style="fill:#fff;stroke-width:8.6;stroke:#000"><rect x="-2423.9" y="1258.4" width="407" height="53.335" ry="10.8" style="fill-rule:evenodd;fill:#fff;stroke-linecap:round;stroke-linejoin:round;stroke-miterlimit:10.5;stroke-width:8.6;stroke:#000"/><path d="m-2412.2 1258.4c5.5108-33.349 18.994-17.316 49.347-32.647 27.758-14.02 34.752-46.453 142.39-46.453s114.63 32.433 142.39 46.453c30.353 15.331 43.837-0.7019 49.347 32.647z" style="fill-rule:evenodd;fill:#fff;stroke-linecap:round;stroke-linejoin:round;stroke-miterlimit:10.5;stroke-width:8.6;stroke:#000"/><rect x="-2245" y="1072.8" width="49.088" height="91.544" style="fill-rule:evenodd;fill:#fff;stroke-linecap:round;stroke-linejoin:round;stroke-miterlimit:10.5;stroke-width:8.6;stroke:#000"/><path d="m-1974.6 1347.5a48.907 48.907 0 0 0-68.631-0.4641v-34.69h-354.46v127.6h63.124l56.328 56.229h115.59l56.327-56.227h63.093v-22.818a48.907 48.907 0 0 0 68.631-0.4613 48.907 48.907 0 0 0 0-69.164zm-17.664 17.664a23.925 23.925 0 0 1 0 33.835 23.925 23.925 0 0 1-33.833 0 23.925 23.925 0 0 1 0-33.835 23.925 23.925 0 0 1 33.836 0z" style="fill-rule:evenodd;fill:#fff;stroke-linecap:round;stroke-linejoin:round;stroke-miterlimit:10.5;stroke-width:8.6;stroke:#000"/><path d="m-2311.7 1311.7v89.828l54.501 54.57h73.588l54.501-54.57v-89.828z" style="fill-rule:evenodd;fill:#fff;stroke-linecap:round;stroke-linejoin:round;stroke-miterlimit:10.5;stroke-width:8.6;stroke:#000"/><circle cx="-2220.4" cy="1373" r="19.837" style="fill-rule:evenodd;fill:#fff;stroke-linecap:round;stroke-linejoin:round;stroke-miterlimit:10.5;stroke-width:8.6;stroke:#000"/><circle cx="-2220.4" cy="1373" r="47.615" style="fill-rule:evenodd;fill:#fff;stroke-linecap:round;stroke-linejoin:round;stroke-miterlimit:10.5;stroke-width:8.6;stroke:#000"/><g transform="translate(-1.1859,-6.7634)" style="fill:#fff;stroke-width:8.6;stroke:#000"><g style="fill:#fff;stroke-width:8.6;stroke:#000"><ellipse cx="-2357.1" cy="1373" rx="19.58" ry="26.343" style="fill-rule:evenodd;fill:#fff;stroke-linecap:round;stroke-linejoin:round;stroke-miterlimit:10.5;stroke-width:8.6;stroke:#000"/></g><ellipse cx="-2081.4" cy="1373" rx="19.58" ry="26.343" style="fill-rule:evenodd;fill:#fff;stroke-linecap:round;stroke-linejoin:round;stroke-miterlimit:10.5;stroke-width:8.6;stroke:#000"/></g><rect x="-2279.2" y="1164.3" width="117.47" height="19.806" ry="8.782" style="fill-rule:evenodd;fill:#fff;stroke-linecap:round;stroke-linejoin:round;stroke-miterlimit:10.5;stroke-width:8.6;stroke:#000"/></g><g transform="matrix(5.9056 5.1452 -5.1453 5.9055 36878 -9998.2)" style="fill:#fff;stroke-width:8.3054;stroke:#000"><path d="m1185.3 1719.3c-0.5622 0.4952-1.1129 1.0022-1.65 1.5202-8.594 8.2895-14.584 18.949-19.631 30.953-10.094 24.008-16.47 54.149-24.181 85.305-3.6082 14.577-7.4481 29.369-11.317 43.998a47.231 47.231 0 0 0-0.1593-0.2115 47.231 47.231 0 0 0-66.638-4.5829 47.231 47.231 0 0 0-4.5843 66.637 47.231 47.231 0 0 0 50.276 13.79c-0.5831 1.9583-1.2517 4.3269-1.8132 6.1854l-3.8845 12.856 12.709 4.3476c23.428 8.0121 41.313 33.385 64.406 60.022l4.1668 4.8054 67.971-5e-4 4.1648-4.8044c23.093-26.638 40.978-52.011 64.406-60.023l12.71-4.3463-3.8855-12.858c-9.8226-32.512-23.103-80.843-34.235-125.82-7.7118-31.156-14.089-61.296-24.183-85.303-5.0468-12.004-11.035-22.664-19.629-30.954-8.5934-8.2891-20.423-13.726-33.334-13.726-11.297 5e-4 -21.765 4.1633-29.962 10.757-0.5855 0.4709-1.1592 0.9545-1.7214 1.4497zm-107.73 175.17a23.105 23.105 0 0 1 32.6 2.2427 23.105 23.105 0 0 1-2.2439 32.599 23.105 23.105 0 0 1-32.597-2.2425 23.105 23.105 0 0 1 2.2413-32.599z" style="color:#000000;fill-rule:evenodd;fill:#fff;stroke-miterlimit:3.1;stroke-width:8.3054;stroke:#000"/><path d="m1217 1735c5.9441 4e-4 9.5556 1.6366 13.998 5.9219 4.4431 4.2855 9.0882 11.702 13.291 21.699 8.4058 19.993 14.987 49.555 22.82 81.203 10.113 40.856 21.634 82.778 31.193 115.21-25.824 13.339-42.775 37.249-60.223 58.09h-42.162c-17.448-20.841-34.398-44.751-60.223-58.09 9.5589-32.436 21.08-74.358 31.193-115.21 7.8337-31.648 14.414-61.21 22.82-81.203 4.2029-9.9967 8.8499-17.414 13.293-21.699 4.4424-4.2853 8.052-5.9215 13.996-5.9219z" style="color:#000000;fill-rule:evenodd;fill:#fff;stroke-miterlimit:3.1;stroke-width:8.3054;stroke:#000"/><circle cx="1217" cy="1939.3" r="25.856" style="fill-rule:evenodd;fill:#fff;stroke-linecap:round;stroke-linejoin:round;stroke-miterlimit:10.5;stroke-width:8.3054;stroke:#000"/><circle cx="1217" cy="1860" r="20.973" style="fill-rule:evenodd;fill:#fff;stroke-linecap:round;stroke-linejoin:round;stroke-miterlimit:10.5;stroke-width:8.3054;stroke:#000"/><circle cx="1217" cy="1793.6" r="14.446" style="fill-rule:evenodd;fill:#fff;stroke-linecap:round;stroke-linejoin:round;stroke-miterlimit:10.5;stroke-width:8.3054;stroke:#000"/><rect x="1161.9" y="1704.4" width="110.08" height="16.396" ry="6.2072" style="fill-rule:evenodd;fill:#fff;stroke-miterlimit:3.1;stroke-width:8.3054;stroke:#000"/><path d="m1200.1 1641.2c-18.512 0-33.414 25.083-33.414 56.24v7.1855c0.4512-0.1036 0.9189-0.1641 1.4024-0.1641h97.662c0.4834 0 0.9512 0.054 1.4023 0.1581v-7.1795c0-31.158-14.902-56.24-33.414-56.24z" style="fill-rule:evenodd;fill:#fff;stroke-miterlimit:3.1;stroke-width:8.3054;stroke:#000"/><rect x="1182.7" y="1689.7" width="68.452" height="14.182" ry="6.2072" style="fill-rule:evenodd;fill:#fff;stroke-miterlimit:3.1;stroke-width:8.3054;stroke:#000"/></g><path d="m33372 6777.7c-426.98 0-1030.9-214.06-1563.1-468.98-657.73-315.06-1058.5-770.99-1076.9-884.27l-137.66 336.2c18.387 113.25 531.96 566.74 1189.7 881.78 532.2 254.93 1190.1 452.83 1635.9 452.83 87.602-59.404 92.72-256.46-47.967-317.56z" style="fill-rule:evenodd;fill:#fff;stroke-linecap:round;stroke-linejoin:round;stroke-miterlimit:3.1;stroke-width:65.054;stroke:#000"/><path d="m30803 6593.3c346.58-44.769 668.81-122.07 1008-284.57 657.73-315.05 1058.5-770.99 1076.9-884.27l137.66 336.2c-18.387 113.25-531.96 566.74-1189.7 881.78-331.82 158.94-712.5 226.65-1060.2 255.11-97.596-72.112-110.24-276.97 27.26-304.27z" style="fill-rule:evenodd;fill:#fff;stroke-linecap:round;stroke-linejoin:round;stroke-miterlimit:3.1;stroke-width:65.054;stroke:#000"/><path d="m31810 4845.3c-621.43 0-968.81 271.92-1285.2 580.28-1.713 166.4 32.871 254.06 70.575 334.95 360.75-360.75 597.52-627.79 1214.6-627.79 617.06 0 853.82 267.05 1214.6 627.79 37.704-80.894 72.291-168.55 70.575-334.95-316.33-308.37-663.71-580.28-1285.1-580.28z" style="color:#000000;fill-rule:evenodd;fill:#fff;stroke-linecap:round;stroke-miterlimit:3.1;stroke-width:65.054;stroke:#000"/><g id="a" transform="matrix(7.5643 0 0 7.5642 24220 -5373.9)" style="stroke-width:7;stroke:#000"><path d="m1040.3 801.11c45.632-49.836 95.567 42.097 17.226 77.535 112.27-36.704 59.59 112.33-13.799 114.22 112.46-3.2061 10.626 81.778-17.801 104.85 4.8012-6.3793 10.646-9.6593 19.104-9.6593 37.66 0-6.3151 52.191-14.537 64.379-11.425 36.471-11.601 76.721-8.6926 115.12-8.2097 7.168-13.369 11.621-24.76 11.884-22.406-4.5049-30.692-16.154-20.829-38.898 10.348-37.771-3.926-90.033-20.477-123.9-7.5662-26.818-83.924-64.481-24.035-95.844-96.355-46.154-85.632-188.07 6.2344-119.95-50.875-28.929-80.222-120.39-4.9735-106.52-19.608-26.969-2.3148-62.482 29.059-33.87-13.255-51.573 75.916-50.335 57.9-0.44573 41.891-27.599 47.032 19.946 20.382 41.108z" style="fill-rule:evenodd;fill:#f1e632;stroke-linecap:round;stroke-linejoin:round;stroke-miterlimit:3.1;stroke-width:7;stroke:#000"/><path d="m1001 1165.3-9.7307-427.67" style="fill:none;stroke-linecap:round;stroke-linejoin:round;stroke-miterlimit:3.1;stroke-width:7;stroke:#000"/><path d="m994.77 891.2c-27.853-20.858-56.517-39.254-80.97-70.443" style="fill:none;stroke-linecap:round;stroke-linejoin:round;stroke-miterlimit:3.1;stroke-width:7;stroke:#000"/><path d="m995.77 873.58c27.818-13.132 54.03-30.341 74.623-61.815" style="fill:none;stroke-linecap:round;stroke-linejoin:round;stroke-miterlimit:3.1;stroke-width:7;stroke:#000"/><path d="m997.35 1004.6c-36.888-22.528-69.447-51.011-97.592-85.566" style="fill:none;stroke-linecap:round;stroke-linejoin:round;stroke-miterlimit:3.1;stroke-width:7;stroke:#000"/><path d="m996.73 977.69c30.747-21.47 61-31.097 92.569-72.308" style="fill:none;stroke-linecap:round;stroke-linejoin:round;stroke-miterlimit:3.1;stroke-width:7;stroke:#000"/><path d="m999.55 1101.4c-17.816-21.457-37.774-38.077-59.652-50.36" style="fill:none;stroke-linecap:round;stroke-linejoin:round;stroke-miterlimit:3.1;stroke-width:7;stroke:#000"/><path d="m998.84 1070.1c21.035-23.521 39.808-44.872 66.339-52.388" style="fill:none;stroke-linecap:round;stroke-linejoin:round;stroke-miterlimit:3.1;stroke-width:7;stroke:#000"/><path d="m956.59 778.32c8.3141 17.575 22.236 27.881 36.471 37.779" style="fill:none;stroke-linecap:round;stroke-linejoin:round;stroke-miterlimit:3.1;stroke-width:7;stroke:#000"/></g><use transform="matrix(.67979 -.66944 .66946 .67979 7035.8 22631)" xlink:href="#a"/><use transform="matrix(.66945 .67978 -.6798 .66945 13672 -20193)" xlink:href="#a"/><g transform="matrix(7.5643 0 0 7.5642 24220 -5373.9)"><g id="b" transform="matrix(-.21563 -.61597 .61892 -.21494 153.98 2024.7)" style="fill:#f1e632;stroke-width:10.705"><path d="m761.34 1364.1h-134.24c-1e-5 -38.91 21.468-147.11 67.12-147.11s67.12 108.2 67.12 147.11z" style="fill-rule:evenodd;fill:#f1e632;stroke-linecap:round;stroke-linejoin:round;stroke-miterlimit:3.1;stroke-width:10.705;stroke:#000"/><path d="m771.3 1347.4a77.078 93.44 0 0 1-38.539 80.922 77.078 93.44 0 0 1-77.078-1e-4 77.078 93.44 0 0 1-38.539-80.922z" style="fill-rule:evenodd;fill:#f1e632;stroke-linecap:round;stroke-linejoin:round;stroke-miterlimit:3.1;stroke-width:10.705;stroke:#000"/><path d="m762.46 1364.1h-134.24c-1e-5 -38.91 21.468-147.11 67.12-147.11s67.12 108.2 67.12 147.11z" style="fill-rule:evenodd;fill:#f1e632;stroke-linecap:round;stroke-linejoin:round;stroke-miterlimit:3.1;stroke-width:10.705;stroke:#000"/><path d="m719.7 1425.2h-48.723c0 8.7988 7.7917 33.266 24.361 33.266s24.361-24.468 24.361-33.266z" style="fill-rule:evenodd;fill:#f1e632;stroke-linecap:round;stroke-linejoin:round;stroke-miterlimit:3.1;stroke-width:10.705;stroke:#000"/><path d="m772.41 1347.4a77.078 93.44 0 0 1-38.539 80.922 77.078 93.44 0 0 1-77.078-1e-4 77.078 93.44 0 0 1-38.539-80.922z" style="fill-rule:evenodd;fill:#f1e632;stroke-linecap:round;stroke-linejoin:round;stroke-miterlimit:3.1;stroke-width:10.705;stroke:#000"/></g><use transform="matrix(-1,0,0,1,1986,0)" xlink:href="#b"/></g></g></g></svg>
